<svg xmlns="http://www.w3.org/2000/svg" viewBox="0 0 512 512">
  <defs>
    <linearGradient id="bg" x1="0" y1="0" x2="1" y2="1">
      <stop offset="0%" stop-color="#1a8fe8"/>
      <stop offset="100%" stop-color="#004f99"/>
    </linearGradient>
    <linearGradient id="sh" x1="0" y1="0" x2="0" y2="1">
      <stop offset="0%" stop-color="white" stop-opacity="0.18"/>
      <stop offset="100%" stop-color="black" stop-opacity="0.1"/>
    </linearGradient>
  </defs>
  <rect width="512" height="512" rx="96" fill="url(#bg)"/>
  <rect width="512" height="512" rx="96" fill="url(#sh)"/>
  <!-- Document shadow -->
  <rect x="152" y="128" width="220" height="288" rx="16" fill="rgba(0,0,0,0.2)"/>
  <!-- Document -->
  <rect x="140" y="116" width="220" height="288" rx="16" fill="white"/>
  <!-- Title bar -->
  <rect x="168" y="156" width="164" height="18" rx="9" fill="#0078d4"/>
  <!-- Lines -->
  <rect x="168" y="194" width="156" height="11" rx="5.5" fill="#c8ddf0"/>
  <rect x="168" y="217" width="124" height="11" rx="5.5" fill="#c8ddf0"/>
  <rect x="168" y="248" width="156" height="11" rx="5.5" fill="#c8ddf0"/>
  <rect x="168" y="271" width="100" height="11" rx="5.5" fill="#c8ddf0"/>
  <rect x="168" y="302" width="156" height="11" rx="5.5" fill="#c8ddf0"/>
  <rect x="168" y="325" width="80" height="11" rx="5.5" fill="#c8ddf0"/>
  <!-- Search badge -->
  <circle cx="352" cy="372" r="72" fill="#004f99"/>
  <circle cx="347" cy="366" r="30" fill="none" stroke="white" stroke-width="14"/>
  <line x1="369" y1="388" x2="396" y2="415" stroke="white" stroke-width="14" stroke-linecap="round"/>
</svg>