<svg xmlns="http://www.w3.org/2000/svg" viewBox="0 0 512 512">
  <defs>
    <linearGradient id="bg" x1="0" y1="0" x2="0" y2="1">
      <stop offset="0%" stop-color="#00d63c"/>
      <stop offset="100%" stop-color="#009028"/>
    </linearGradient>
  </defs>
  <rect width="512" height="512" rx="96" fill="url(#bg)"/>
  <!-- Document -->
  <rect x="144" y="100" width="224" height="290" rx="16" fill="rgba(0,0,0,0.15)"/>
  <rect x="132" y="88" width="224" height="290" rx="16" fill="white"/>
  <!-- Title line -->
  <rect x="164" y="132" width="160" height="18" rx="9" fill="#00be35"/>
  <!-- Content lines -->
  <rect x="164" y="168" width="155" height="11" rx="5.5" fill="#b8e8c4"/>
  <rect x="164" y="191" width="120" height="11" rx="5.5" fill="#b8e8c4"/>
  <rect x="164" y="222" width="155" height="11" rx="5.5" fill="#b8e8c4"/>
  <rect x="164" y="245" width="96" height="11" rx="5.5" fill="#b8e8c4"/>
  <rect x="164" y="276" width="155" height="11" rx="5.5" fill="#b8e8c4"/>
  <rect x="164" y="299" width="76" height="11" rx="5.5" fill="#b8e8c4"/>
  <!-- Remo logo paths (white, small, bottom of doc) -->
  <!-- Search badge -->
  <circle cx="356" cy="368" r="76" fill="#007d23"/>
  <circle cx="350" cy="361" r="30" fill="none" stroke="white" stroke-width="15"/>
  <line x1="372" y1="383" x2="400" y2="411" stroke="white" stroke-width="15" stroke-linecap="round"/>
</svg>